<svg width="48" height="48" viewBox="0 0 48 48" fill="none" xmlns="http://www.w3.org/2000/svg">
<path d="M22.1189 21.3848C22.8319 22.0218 25.7565 22.0111 26.2004 20.9324C26.3467 20.5753 26.4396 19.2366 26.4758 18.7395C26.575 17.3731 26.5057 15.965 26.6364 14.5878C26.6962 13.9615 27.0582 10.7946 27.4202 10.5838C28.0577 10.2145 33.6015 11.7887 33.9588 12.3534C34.2658 12.8381 33.1561 14.8509 32.9294 15.508C30.8753 21.4709 30.9555 26.9815 33.0868 32.9028C33.3024 33.503 34.3098 35.2526 34.0076 35.7235C33.8298 36.002 30.1937 37.05 29.5971 37.1808C29.0447 37.3023 27.6689 37.7271 27.3352 37.3023C27.0204 36.9022 26.7025 34.2108 26.6364 33.5153C26.438 31.4348 26.4963 29.322 26.2869 27.24C26.1405 25.9643 22.6839 26.1982 22.1456 26.6645C21.7096 27.043 21.6498 28.4156 21.5994 29.0543C21.4924 30.413 21.5632 31.838 21.4389 33.206C21.3869 33.78 20.9871 37.1823 20.7715 37.4024C20.4441 37.7378 18.1601 37.1131 17.5951 36.9653C16.9387 36.7945 14.4611 36.0713 14.0786 35.7066C13.6961 35.3419 14.7885 33.463 14.9884 32.9013C16.9686 27.3308 17.2015 21.6094 15.3032 15.9681C15.0624 15.2526 13.8079 12.8381 14.1164 12.3519C14.469 11.7979 19.2698 10.5315 20.1104 10.5022C20.6644 10.4822 20.7762 10.5915 20.9257 11.087C21.7883 13.9492 21.2752 17.7993 21.7615 20.7338C21.7915 20.9123 21.9835 21.2647 22.1173 21.3848H22.1189Z" fill="#FA1805"/>
<path d="M35.7649 13.2797C36.0813 12.9827 37.9387 14.4492 38.285 14.7385C43.9043 19.455 45.6861 27.1399 39.6166 32.355C39.1869 32.7243 37.0163 34.2985 36.6007 34.3339C35.82 34.4001 34.6977 30.6007 34.5293 29.8513C35.2549 29.0265 36.2466 28.4387 36.947 27.5908C40.0558 23.8237 38.7147 18.8564 36.6338 14.9678C36.4858 14.6924 35.576 13.4567 35.7649 13.2797Z" fill="#FA1805"/>
<path d="M11.7964 34.1665C11.373 34.5805 10.5403 33.9188 10.1201 33.6541C2.76612 29.0392 3.05574 20.7511 9.15832 15.2006C9.58803 14.8097 11.5839 13.1816 12.0703 13.2786C12.3804 13.3401 12.2403 13.4925 12.1569 13.6648C11.7114 14.5835 11.0409 15.4745 10.6001 16.4562C8.57592 20.965 8.33981 25.2675 12.2356 28.8176C12.552 29.1054 13.3594 29.4424 13.4193 29.8255C13.4964 30.3149 12.149 33.8234 11.7964 34.1681V34.1665Z" fill="#FA1805"/>
</svg>
